<mxfile host="app.diagrams.net" modified="2024-07-08T07:33:23.323Z" agent="Mozilla/5.0 (Windows NT 10.0; Win64; x64) AppleWebKit/537.36 (KHTML, like Gecko) Chrome/126.0.0.0 Safari/537.36" version="24.6.4" etag="dpZ8eWnHeAE012286FSg" type="github">
  <diagram name="PÃ¡gina-1" id="2fua6Y5fySJiGwBo46Dm">
    <mxGraphModel>
      <root>
        <mxCell id="0" />
        <mxCell id="1" parent="0" />
      </root>
    </mxGraphModel>
  </diagram>
</mxfile>
